<?xml version="1.0" encoding="UTF-8"?>
<!DOCTYPE svg PUBLIC "-//W3C//DTD SVG 1.1//EN" "http://www.w3.org/Graphics/SVG/1.1/DTD/svg11.dtd">
<svg xmlns="http://www.w3.org/2000/svg" version="1.1" width="500px" height="500px" style="shape-rendering:geometricPrecision; text-rendering:geometricPrecision; image-rendering:optimizeQuality; fill-rule:evenodd; clip-rule:evenodd" xmlns:xlink="http://www.w3.org/1999/xlink">
<g><path style="opacity:0.275" fill="#7a7362" d="M 159.5,123.5 C 154.186,119.206 148.853,116.206 143.5,114.5C 150.756,113.8 156.089,116.8 159.5,123.5 Z"/></g>
<g><path style="opacity:0.992" fill="#5a4c3a" d="M 139.5,114.5 C 135.485,115.461 131.819,117.294 128.5,120C 129.905,121.269 131.571,121.769 133.5,121.5C 128.092,126.312 124.759,132.312 123.5,139.5C 120.23,139.321 118.563,137.488 118.5,134C 120.653,127.362 124.32,121.695 129.5,117C 132.536,114.994 135.869,114.16 139.5,114.5 Z"/></g>
<g><path style="opacity:0.012" fill="#e4cd8f" d="M 180.5,131.5 C 179.797,133.873 178.464,135.873 176.5,137.5C 176.158,138.338 175.492,138.672 174.5,138.5C 172.821,138.715 171.821,138.048 171.5,136.5C 171.591,134.302 170.925,133.969 169.5,135.5C 167.435,135.047 165.768,134.047 164.5,132.5C 165.732,129.816 165.732,126.983 164.5,124C 164.63,122.941 165.13,122.108 166,121.5C 168.761,122.796 171.595,123.963 174.5,125C 176.027,127.69 178.027,129.857 180.5,131.5 Z"/></g>
<g><path style="opacity:0.993" fill="#2f2111" d="M 142.5,131.5 C 146.647,132.325 150.981,132.825 155.5,133C 155.957,133.414 156.291,133.914 156.5,134.5C 151.111,135.841 145.778,135.675 140.5,134C 141.056,133.617 141.389,133.117 141.5,132.5C 141.5,131.833 141.833,131.5 142.5,131.5 Z"/></g>
<g><path style="opacity:0.995" fill="#4f3c27" d="M 143.5,114.5 C 148.853,116.206 154.186,119.206 159.5,123.5C 161.588,125.336 162.921,127.669 163.5,130.5C 163.343,131.873 163.51,133.207 164,134.5C 166.881,135.212 169.048,136.878 170.5,139.5C 170.043,140.298 169.376,140.631 168.5,140.5C 167.417,140.461 166.417,140.127 165.5,139.5C 164.636,143.816 163.969,148.149 163.5,152.5C 161.852,154.56 160.352,156.893 159,159.5C 159.083,156.881 159.25,154.214 159.5,151.5C 160.2,147.202 160.533,142.869 160.5,138.5C 155.511,137.778 150.511,137.612 145.5,138C 148.354,140.541 150.021,143.708 150.5,147.5C 150.97,150.346 150.137,152.679 148,154.5C 147.667,154.167 147.333,153.833 147,153.5C 145.647,154.685 144.48,156.019 143.5,157.5C 142.914,157.291 142.414,156.957 142,156.5C 141.316,157.784 141.483,158.951 142.5,160C 142,160.5 141.5,161 141,161.5C 140.809,159.292 140.309,157.292 139.5,155.5C 140.638,150.476 140.638,145.476 139.5,140.5C 138.635,139.417 137.635,139.251 136.5,140C 134.677,140.997 133.01,142.164 131.5,143.5C 130.178,143.33 129.011,143.663 128,144.5C 127.777,141.275 128.943,138.609 131.5,136.5C 134.309,134.103 137.642,132.77 141.5,132.5C 141.389,133.117 141.056,133.617 140.5,134C 145.778,135.675 151.111,135.841 156.5,134.5C 156.291,133.914 155.957,133.414 155.5,133C 150.981,132.825 146.647,132.325 142.5,131.5C 147.048,131.304 151.548,131.304 156,131.5C 152.155,120.472 144.655,117.138 133.5,121.5C 131.571,121.769 129.905,121.269 128.5,120C 131.819,117.294 135.485,115.461 139.5,114.5C 141.035,113.646 142.368,113.646 143.5,114.5 Z"/></g>
<g><path style="opacity:0.486" fill="#f4edc8" d="M 180.5,131.5 C 186.405,136.225 188.072,142.059 185.5,149C 183.803,149.384 182.137,149.218 180.5,148.5C 180.5,147.833 180.167,147.5 179.5,147.5C 178.89,146.609 178.557,145.609 178.5,144.5C 179.833,144.167 179.833,143.833 178.5,143.5C 177.833,143.5 177.5,143.167 177.5,142.5C 176.662,142.158 176.328,141.492 176.5,140.5C 177.625,139.348 177.625,138.348 176.5,137.5C 178.464,135.873 179.797,133.873 180.5,131.5 Z"/></g>
<g><path style="opacity:0.996" fill="#dac57c" d="M 177.5,142.5 C 178.153,141.193 178.82,139.86 179.5,138.5C 183.088,137.258 184.088,138.425 182.5,142C 180.866,142.494 179.199,142.66 177.5,142.5 Z"/></g>
<g><path style="opacity:0.994" fill="#685842" d="M 131.5,136.5 C 128.943,138.609 127.777,141.275 128,144.5C 129.011,143.663 130.178,143.33 131.5,143.5C 128.288,148.908 125.955,154.575 124.5,160.5C 124.467,155.932 125.467,151.599 127.5,147.5C 127.167,146.833 126.833,146.167 126.5,145.5C 125.16,146.867 123.827,148.2 122.5,149.5C 123.31,143.515 126.31,139.182 131.5,136.5 Z"/></g>
<g><path style="opacity:0.99" fill="#41321e" d="M 124.5,160.5 C 124.658,163.902 124.324,167.236 123.5,170.5C 122.417,170.539 121.417,170.873 120.5,171.5C 120.167,170.5 119.833,169.5 119.5,168.5C 120.905,163.596 121.571,158.596 121.5,153.5C 121.232,151.901 121.566,150.568 122.5,149.5C 123.827,148.2 125.16,146.867 126.5,145.5C 126.833,146.167 127.167,146.833 127.5,147.5C 125.467,151.599 124.467,155.932 124.5,160.5 Z"/></g>
<g><path style="opacity:1" fill="#e0b255" d="M 168.5,140.5 C 173.797,144.427 176.464,149.761 176.5,156.5C 171.703,156.161 167.203,157.161 163,159.5C 162.5,159.167 162,158.833 161.5,158.5C 162.747,156.677 163.414,154.677 163.5,152.5C 163.969,148.149 164.636,143.816 165.5,139.5C 166.417,140.127 167.417,140.461 168.5,140.5 Z"/></g>
<g><path style="opacity:0.992" fill="#563f1f" d="M 163.5,130.5 C 164.338,130.842 164.672,131.508 164.5,132.5C 165.768,134.047 167.435,135.047 169.5,135.5C 169.842,136.338 170.508,136.672 171.5,136.5C 171.821,138.048 172.821,138.715 174.5,138.5C 174.833,139.5 175.5,140.167 176.5,140.5C 176.328,141.492 176.662,142.158 177.5,142.5C 177.5,143.167 177.833,143.5 178.5,143.5C 178.5,143.833 178.5,144.167 178.5,144.5C 178.557,145.609 178.89,146.609 179.5,147.5C 180.167,147.5 180.5,147.833 180.5,148.5C 181.097,152.924 181.097,157.257 180.5,161.5C 175.114,161.777 169.781,162.444 164.5,163.5C 163.178,163.67 162.011,163.337 161,162.5C 159.667,163.833 158.333,165.167 157,166.5C 156.552,164.776 155.718,164.109 154.5,164.5C 155.246,163.264 155.579,161.93 155.5,160.5C 156.597,157.314 157.93,154.314 159.5,151.5C 159.25,154.214 159.083,156.881 159,159.5C 160.352,156.893 161.852,154.56 163.5,152.5C 163.414,154.677 162.747,156.677 161.5,158.5C 162,158.833 162.5,159.167 163,159.5C 167.203,157.161 171.703,156.161 176.5,156.5C 176.464,149.761 173.797,144.427 168.5,140.5C 169.376,140.631 170.043,140.298 170.5,139.5C 169.048,136.878 166.881,135.212 164,134.5C 163.51,133.207 163.343,131.873 163.5,130.5 Z"/></g>
<g><path style="opacity:0.944" fill="#6b5841" d="M 155.5,160.5 C 155.579,161.93 155.246,163.264 154.5,164.5C 155.718,164.109 156.552,164.776 157,166.5C 158.333,165.167 159.667,163.833 161,162.5C 162.011,163.337 163.178,163.67 164.5,163.5C 160.562,166.935 156.729,170.602 153,174.5C 149.021,180.967 144.521,186.967 139.5,192.5C 141.719,186.414 145.219,181.081 150,176.5C 151.092,173.281 152.592,170.281 154.5,167.5C 154.333,167.167 154.167,166.833 154,166.5C 151.763,168.647 149.763,170.98 148,173.5C 148.783,171.655 149.116,169.655 149,167.5C 148.292,168.381 147.458,169.047 146.5,169.5C 147.786,166.883 149.453,164.55 151.5,162.5C 151.351,163.552 151.517,164.552 152,165.5C 153.03,163.654 154.196,161.987 155.5,160.5 Z"/></g>
<g><path style="opacity:0.995" fill="#5f4e39" d="M 121.5,153.5 C 121.571,158.596 120.905,163.596 119.5,168.5C 119.833,169.5 120.167,170.5 120.5,171.5C 121.417,170.873 122.417,170.539 123.5,170.5C 122.446,177.046 120.946,183.379 119,189.5C 119.708,188.619 120.542,187.953 121.5,187.5C 118.313,192.538 114.647,197.205 110.5,201.5C 114.703,194.577 117.703,187.077 119.5,179C 119.167,178.167 118.833,177.333 118.5,176.5C 117.35,178.763 116.35,181.096 115.5,183.5C 114.817,183.863 114.15,184.196 113.5,184.5C 116.034,174.025 118.701,163.692 121.5,153.5 Z"/></g>
<g><path style="opacity:0.184" fill="#695848" d="M 135.5,164.5 C 135.628,166.655 135.128,168.655 134,170.5C 130.236,175.056 126.736,179.723 123.5,184.5C 126.497,177.162 130.497,170.495 135.5,164.5 Z"/></g>
<g><path style="opacity:0.992" fill="#392c1d" d="M 139.5,192.5 C 137.983,192.511 136.816,193.177 136,194.5C 135.833,194 135.667,193.5 135.5,193C 138.453,187.595 141.787,182.428 145.5,177.5C 144.603,177.331 143.603,176.998 142.5,176.5C 144.11,174.275 145.443,171.941 146.5,169.5C 147.458,169.047 148.292,168.381 149,167.5C 149.116,169.655 148.783,171.655 148,173.5C 149.763,170.98 151.763,168.647 154,166.5C 154.167,166.833 154.333,167.167 154.5,167.5C 152.592,170.281 151.092,173.281 150,176.5C 145.219,181.081 141.719,186.414 139.5,192.5 Z"/></g>
<g><path style="opacity:0.988" fill="#34251c" d="M 134.5,175.5 C 126.729,184.942 119.729,194.942 113.5,205.5C 108.344,211.808 103.677,218.475 99.5,225.5C 96.4789,228.366 93.9789,231.7 92,235.5C 90.8904,237.037 89.3904,237.703 87.5,237.5C 87.7373,238.791 87.404,239.791 86.5,240.5C 86.6309,239.624 86.2975,238.957 85.5,238.5C 82.1667,240.833 78.8333,243.167 75.5,245.5C 75.1667,245.333 74.8333,245.167 74.5,245C 76.424,243.25 78.0907,241.417 79.5,239.5C 83.6725,237.842 87.1725,235.175 90,231.5C 97.3442,222.126 104.178,212.459 110.5,202.5C 110.5,202.167 110.5,201.833 110.5,201.5C 114.647,197.205 118.313,192.538 121.5,187.5C 121.427,185.973 122.094,184.973 123.5,184.5C 126.736,179.723 130.236,175.056 134,170.5C 135.128,168.655 135.628,166.655 135.5,164.5C 137.074,164.063 138.241,163.063 139,161.5C 139.638,162.609 140.138,163.775 140.5,165C 138.261,168.396 136.261,171.896 134.5,175.5 Z"/></g>
<g><path style="opacity:0.184" fill="#8e7f6f" d="M 134.5,175.5 C 128.271,186.058 121.271,196.058 113.5,205.5C 119.729,194.942 126.729,184.942 134.5,175.5 Z"/></g>
<g><path style="opacity:0.863" fill="#524336" d="M 150.5,147.5 C 151.913,150.382 152.579,153.549 152.5,157C 152.494,159.033 152.161,160.866 151.5,162.5C 149.453,164.55 147.786,166.883 146.5,169.5C 145.443,171.941 144.11,174.275 142.5,176.5C 143.603,176.998 144.603,177.331 145.5,177.5C 141.787,182.428 138.453,187.595 135.5,193C 135.667,193.5 135.833,194 136,194.5C 136.816,193.177 137.983,192.511 139.5,192.5C 137.646,196.221 135.313,199.554 132.5,202.5C 132.795,200.265 132.461,198.265 131.5,196.5C 130.102,198.109 128.435,198.942 126.5,199C 129.297,196.221 131.13,193.054 132,189.5C 130.38,191.241 128.88,193.075 127.5,195C 126.833,195.667 126.167,195.667 125.5,195C 126.252,194.329 126.586,193.496 126.5,192.5C 129.605,189.725 131.938,186.392 133.5,182.5C 134.242,180.574 135.242,178.741 136.5,177C 135.956,176.283 135.289,175.783 134.5,175.5C 136.261,171.896 138.261,168.396 140.5,165C 140.138,163.775 139.638,162.609 139,161.5C 138.241,163.063 137.074,164.063 135.5,164.5C 136.597,161.314 137.93,158.314 139.5,155.5C 140.309,157.292 140.809,159.292 141,161.5C 141.5,161 142,160.5 142.5,160C 141.483,158.951 141.316,157.784 142,156.5C 142.414,156.957 142.914,157.291 143.5,157.5C 144.48,156.019 145.647,154.685 147,153.5C 147.333,153.833 147.667,154.167 148,154.5C 150.137,152.679 150.97,150.346 150.5,147.5 Z"/></g>
<g><path style="opacity:0.227" fill="#8a7b6e" d="M 133.5,182.5 C 131.938,186.392 129.605,189.725 126.5,192.5C 128.062,188.608 130.395,185.275 133.5,182.5 Z"/></g>
<g><path style="opacity:0.996" fill="#4b3e2d" d="M 113.5,185.5 C 113.66,187.199 113.494,188.866 113,190.5C 109.137,195.025 105.304,199.525 101.5,204C 103.757,203.563 106.09,203.063 108.5,202.5C 108.5,202.833 108.5,203.167 108.5,203.5C 107.833,203.5 107.5,203.833 107.5,204.5C 104.743,206.086 101.743,207.086 98.5,207.5C 95.7131,206.523 92.7131,206.19 89.5,206.5C 83.0273,203.541 80.8606,198.541 83,191.5C 88.4424,181.377 96.2757,174.21 106.5,170C 107.276,171.77 107.11,173.603 106,175.5C 100.699,179.8 95.6988,184.466 91,189.5C 87.2541,193.988 87.7541,197.822 92.5,201C 97.0411,202.114 101.041,201.114 104.5,198C 108.138,194.21 111.138,190.043 113.5,185.5 Z"/></g>
<g><path style="opacity:0.992" fill="#3a2b1b" d="M 110.5,201.5 C 109.833,201.5 109.5,201.833 109.5,202.5C 109.167,202.5 108.833,202.5 108.5,202.5C 106.09,203.063 103.757,203.563 101.5,204C 105.304,199.525 109.137,195.025 113,190.5C 113.494,188.866 113.66,187.199 113.5,185.5C 113.5,185.167 113.5,184.833 113.5,184.5C 114.15,184.196 114.817,183.863 115.5,183.5C 116.35,181.096 117.35,178.763 118.5,176.5C 118.833,177.333 119.167,178.167 119.5,179C 117.703,187.077 114.703,194.577 110.5,201.5 Z"/></g>
<g><path style="opacity:0.961" fill="#66584c" d="M 131.5,196.5 C 128.182,202.455 124.349,208.122 120,213.5C 120.398,211.369 121.398,209.369 123,207.5C 123.667,206.5 123.667,205.5 123,204.5C 121,207.167 119,209.833 117,212.5C 117.195,210.874 117.195,209.207 117,207.5C 116.189,208.96 115.355,209.293 114.5,208.5C 118.171,202.841 122.171,197.508 126.5,192.5C 126.586,193.496 126.252,194.329 125.5,195C 126.167,195.667 126.833,195.667 127.5,195C 128.88,193.075 130.38,191.241 132,189.5C 131.13,193.054 129.297,196.221 126.5,199C 128.435,198.942 130.102,198.109 131.5,196.5 Z"/></g>
<g><path style="opacity:0.373" fill="#816b53" d="M 89.5,206.5 C 92.7131,206.19 95.7131,206.523 98.5,207.5C 95.3726,208.815 92.3726,208.482 89.5,206.5 Z"/></g>
<g><path style="opacity:0.275" fill="#6f6151" d="M 109.5,202.5 C 109.833,202.5 110.167,202.5 110.5,202.5C 104.178,212.459 97.3442,222.126 90,231.5C 87.1725,235.175 83.6725,237.842 79.5,239.5C 90.316,229.018 99.6493,217.351 107.5,204.5C 108.167,204.5 108.5,204.167 108.5,203.5C 109.167,203.5 109.5,203.167 109.5,202.5 Z"/></g>
<g><path style="opacity:0.933" fill="#47392d" d="M 134.5,175.5 C 135.289,175.783 135.956,176.283 136.5,177C 135.242,178.741 134.242,180.574 133.5,182.5C 130.395,185.275 128.062,188.608 126.5,192.5C 122.171,197.508 118.171,202.841 114.5,208.5C 115.355,209.293 116.189,208.96 117,207.5C 117.195,209.207 117.195,210.874 117,212.5C 119,209.833 121,207.167 123,204.5C 123.667,205.5 123.667,206.5 123,207.5C 121.398,209.369 120.398,211.369 120,213.5C 124.349,208.122 128.182,202.455 131.5,196.5C 132.461,198.265 132.795,200.265 132.5,202.5C 125.184,214.449 117.351,226.116 109,237.5C 106.454,242.592 103.954,247.592 101.5,252.5C 101.238,250.436 100.071,249.103 98,248.5C 94.0451,250.759 91.8785,254.092 91.5,258.5C 90.5,258.5 89.5,258.5 88.5,258.5C 87.3523,259.895 86.3523,259.728 85.5,258C 87.2318,256.028 88.5652,253.861 89.5,251.5C 88.4246,252.562 87.4246,252.562 86.5,251.5C 87.1272,250.583 87.4606,249.583 87.5,248.5C 93.7018,241.398 98.8684,233.732 103,225.5C 101.647,226.685 100.48,228.019 99.5,229.5C 98.7084,228.3 98.7084,226.967 99.5,225.5C 101.841,223.344 103.841,220.844 105.5,218C 106.332,217.312 106.998,217.479 107.5,218.5C 104.71,221.922 104.877,222.589 108,220.5C 109.934,217.966 111.268,215.299 112,212.5C 110.935,214.396 110.102,214.563 109.5,213C 110.978,210.541 112.312,208.041 113.5,205.5C 121.271,196.058 128.271,186.058 134.5,175.5 Z"/></g>
<g><path style="opacity:0.894" fill="#756556" d="M 113.5,205.5 C 112.312,208.041 110.978,210.541 109.5,213C 110.102,214.563 110.935,214.396 112,212.5C 111.268,215.299 109.934,217.966 108,220.5C 104.877,222.589 104.71,221.922 107.5,218.5C 106.998,217.479 106.332,217.312 105.5,218C 103.841,220.844 101.841,223.344 99.5,225.5C 103.677,218.475 108.344,211.808 113.5,205.5 Z"/></g>
<g><path style="opacity:0.63" fill="#6f604f" d="M 236.5,228.5 C 228.759,227.165 226.426,230.165 229.5,237.5C 228.25,237.423 227.417,236.756 227,235.5C 225.392,230.107 227.392,227.107 233,226.5C 234.699,226.387 235.866,227.053 236.5,228.5 Z"/></g>
<g><path style="opacity:0.99" fill="#5b4c3c" d="M 422.5,240.5 C 418.445,240.176 414.445,240.509 410.5,241.5C 411.833,250.167 411.833,258.833 410.5,267.5C 414.795,268.661 419.129,268.828 423.5,268C 422.619,267.292 421.953,266.458 421.5,265.5C 422.167,265.5 422.833,265.5 423.5,265.5C 424.742,267.511 426.409,267.511 428.5,265.5C 428.586,266.496 428.252,267.329 427.5,268C 432.167,268.667 436.833,268.667 441.5,268C 440.975,267.308 440.308,266.808 439.5,266.5C 438.712,257.83 438.046,249.163 437.5,240.5C 434.962,240.507 432.462,240.841 430,241.5C 428.624,241.684 427.791,242.351 427.5,243.5C 425.896,242.713 425.229,241.38 425.5,239.5C 430.886,238.818 436.219,238.818 441.5,239.5C 444.205,237.799 446.872,237.466 449.5,238.5C 446.422,239.23 443.422,240.397 440.5,242C 442.701,242.825 444.534,242.325 446,240.5C 446.497,242.81 446.663,245.143 446.5,247.5C 445.717,245.924 444.55,244.591 443,243.5C 442.586,243.957 442.086,244.291 441.5,244.5C 440.167,251.5 440.167,258.5 441.5,265.5C 443.428,266.712 445.095,266.379 446.5,264.5C 446.461,265.583 446.127,266.583 445.5,267.5C 449.833,268.833 454.167,268.833 458.5,267.5C 457.347,266.313 457.347,265.313 458.5,264.5C 459.614,265.885 460.614,267.385 461.5,269C 443.503,269.5 425.503,269.667 407.5,269.5C 407.5,268.5 407.5,267.5 407.5,266.5C 408.496,266.586 409.329,266.252 410,265.5C 410.831,258.144 410.665,250.811 409.5,243.5C 408.808,242.975 408.308,242.308 408,241.5C 407.722,242.416 407.222,243.082 406.5,243.5C 406.5,242.5 406.5,241.5 406.5,240.5C 408.189,239.069 410.189,238.236 412.5,238C 410.522,235.503 410.022,232.669 411,229.5C 414.588,225.607 418.254,225.607 422,229.5C 422.978,232.669 422.478,235.503 420.5,238C 421.756,238.417 422.423,239.25 422.5,240.5 Z"/></g>
<g><path style="opacity:0.008" fill="#b8b1b8" d="M 288.5,230.5 C 287.167,230.5 286.5,231.167 286.5,232.5C 285.596,231.791 285.263,230.791 285.5,229.5C 286.791,229.263 287.791,229.596 288.5,230.5 Z"/></g>
<g><path style="opacity:0.996" fill="#473723" d="M 236.5,228.5 C 240.5,231.5 240.5,234.5 236.5,237.5C 234.167,237.5 231.833,237.5 229.5,237.5C 226.426,230.165 228.759,227.165 236.5,228.5 Z"/></g>
<g><path style="opacity:0.999" fill="#574939" d="M 307.5,230.5 C 317.591,229.271 323.091,233.604 324,243.5C 328.883,238.796 334.717,237.296 341.5,239C 343.491,239.374 345.158,240.207 346.5,241.5C 340.862,240.541 335.195,240.374 329.5,241C 326.921,242.076 325.254,243.909 324.5,246.5C 322.97,247.211 321.637,248.211 320.5,249.5C 321.463,245.204 321.629,240.871 321,236.5C 319.981,235.313 318.814,234.313 317.5,233.5C 317.141,234.917 315.975,236.25 314,237.5C 313.667,237.167 313.333,236.833 313,236.5C 313.083,240.311 312.25,243.645 310.5,246.5C 313.303,237.904 310.303,234.07 301.5,235C 300.455,240.106 300.455,245.273 301.5,250.5C 303.167,250.5 304.833,250.5 306.5,250.5C 306.97,251.693 307.97,252.36 309.5,252.5C 312.878,251.958 316.211,251.291 319.5,250.5C 318.025,252.41 316.025,253.576 313.5,254C 309.472,254.392 305.472,254.892 301.5,255.5C 301.173,257.488 300.84,259.488 300.5,261.5C 301.698,264.142 302.532,266.809 303,269.5C 298.556,270.586 294.056,270.586 289.5,269.5C 293.353,268.834 297.353,268.167 301.5,267.5C 300.214,262.008 299.547,256.341 299.5,250.5C 299.522,244.755 299.855,239.089 300.5,233.5C 305.418,233.061 310.418,232.895 315.5,233C 312.621,232.454 309.954,231.621 307.5,230.5 Z"/></g>
<g><path style="opacity:1" fill="#4f3924" d="M 247.5,231.5 C 250.167,231.5 252.833,231.5 255.5,231.5C 255.5,240.167 255.5,248.833 255.5,257.5C 255.335,260.518 255.502,263.518 256,266.5C 256.5,267 257,267.5 257.5,268C 255.167,268.167 252.833,268.333 250.5,268.5C 247.731,268.471 245.397,267.805 243.5,266.5C 244.117,266.389 244.617,266.056 245,265.5C 245.667,255.833 245.667,246.167 245,236.5C 240.442,232.342 241.276,230.675 247.5,231.5 Z"/></g>
<g><path style="opacity:0.966" fill="#382b1c" d="M 133.5,237.5 C 132.766,236.122 132.099,234.622 131.5,233C 128.854,232.503 126.187,232.336 123.5,232.5C 123.552,236.198 123.886,239.865 124.5,243.5C 124.19,246.713 124.523,249.713 125.5,252.5C 125.5,253.167 125.167,253.5 124.5,253.5C 123.657,256.326 122.991,259.326 122.5,262.5C 122.167,263.167 121.833,263.833 121.5,264.5C 121.167,263.5 120.833,262.5 120.5,261.5C 121.381,254.864 121.714,248.197 121.5,241.5C 121.31,239.358 121.144,237.025 121,234.5C 118.674,233.287 118.341,231.954 120,230.5C 124.513,229.195 129.013,229.195 133.5,230.5C 134.057,232.718 134.057,235.051 133.5,237.5 Z"/></g>
<g><path style="opacity:0.294" fill="#a99d8d" d="M 229.5,237.5 C 231.833,237.5 234.167,237.5 236.5,237.5C 236.5,237.833 236.5,238.167 236.5,238.5C 236.389,239.117 236.056,239.617 235.5,240C 232.447,240.179 229.447,240.679 226.5,241.5C 226.863,242.183 227.196,242.85 227.5,243.5C 227.825,250.687 227.491,257.687 226.5,264.5C 227.033,255.95 226.367,247.617 224.5,239.5C 226.553,239.598 228.22,238.931 229.5,237.5 Z"/></g>
<g><path style="opacity:1" fill="#513a23" d="M 163.5,249.5 C 163.334,254.844 163.501,260.177 164,265.5C 164.925,266.047 165.758,266.713 166.5,267.5C 162.205,268.661 157.871,268.828 153.5,268C 154.293,266.915 154.96,265.748 155.5,264.5C 154.228,257.238 153.394,249.905 153,242.5C 152.333,241.167 151.667,241.167 151,242.5C 150.833,241.833 150.667,241.167 150.5,240.5C 151.396,238.199 151.562,235.866 151,233.5C 150.722,234.416 150.222,235.082 149.5,235.5C 149.297,233.956 148.63,232.622 147.5,231.5C 153.5,228.833 159.5,228.833 165.5,231.5C 163.834,232.992 162.834,234.825 162.5,237C 163.329,241.126 163.663,245.293 163.5,249.5 Z"/></g>
<g><path style="opacity:1" fill="#4e3927" d="M 406.5,240.5 C 406.5,241.5 406.5,242.5 406.5,243.5C 404.833,243.5 403.167,243.5 401.5,243.5C 401.17,250.2 401.503,256.866 402.5,263.5C 404.598,263.957 406.264,264.957 407.5,266.5C 401.998,271.786 396.498,271.786 391,266.5C 389.406,259.304 389.24,252.137 390.5,245C 388.697,244.363 387.364,243.197 386.5,241.5C 390.96,238.873 395.627,236.54 400.5,234.5C 401.452,236.045 401.785,237.712 401.5,239.5C 403.415,239.216 405.081,239.549 406.5,240.5 Z"/></g>
<g><path style="opacity:0.992" fill="#60513f" d="M 488.5,247.5 C 488.5,252.167 488.5,256.833 488.5,261.5C 487.876,263.754 486.543,265.421 484.5,266.5C 484.586,265.504 484.252,264.671 483.5,264C 484.448,263.517 485.448,263.351 486.5,263.5C 487.521,257.87 487.687,252.204 487,246.5C 485.575,245.788 484.075,245.621 482.5,246C 481.167,245 481.167,244 482.5,243C 480.545,240.929 478.212,240.262 475.5,241C 476.931,241.465 478.097,242.299 479,243.5C 479.498,246.482 479.665,249.482 479.5,252.5C 478.686,250.369 478.186,248.036 478,245.5C 476.749,242.184 475.082,241.85 473,244.5C 472.333,250.833 472.333,257.167 473,263.5C 475.082,266.15 476.749,265.816 478,262.5C 478.186,259.964 478.686,257.631 479.5,255.5C 480.581,259.601 479.914,263.434 477.5,267C 479.134,267.494 480.801,267.66 482.5,267.5C 481.737,268.268 480.737,268.768 479.5,269C 482.01,270.09 484.51,271.257 487,272.5C 488.636,275.227 488.802,277.893 487.5,280.5C 487.188,272.344 483.522,270.51 476.5,275C 479.402,277.864 479.068,280.031 475.5,281.5C 478.334,278.481 477.667,276.481 473.5,275.5C 471.283,274.631 468.95,274.298 466.5,274.5C 464.973,274.573 463.973,273.906 463.5,272.5C 469.176,273.801 474.843,273.635 480.5,272C 475.845,271.501 471.179,271.334 466.5,271.5C 466.5,270.167 466.5,268.833 466.5,267.5C 468.099,267.232 469.432,267.566 470.5,268.5C 472.604,268.799 474.604,268.466 476.5,267.5C 473.921,267.085 472.087,265.752 471,263.5C 470.333,257.167 470.333,250.833 471,244.5C 471.692,243.975 472.192,243.308 472.5,242.5C 470.926,241.369 469.259,241.202 467.5,242C 465.63,244.04 463.63,245.873 461.5,247.5C 465.421,239.408 471.754,236.741 480.5,239.5C 483.237,236.697 485.571,236.864 487.5,240C 487.095,240.945 486.428,241.612 485.5,242C 487.16,243.488 488.16,245.321 488.5,247.5 Z M 479.5,252.5 C 479.5,253.5 479.5,254.5 479.5,255.5C 478.686,257.631 478.186,259.964 478,262.5C 476.749,265.816 475.082,266.15 473,263.5C 472.333,257.167 472.333,250.833 473,244.5C 475.082,241.85 476.749,242.184 478,245.5C 478.186,248.036 478.686,250.369 479.5,252.5 Z"/></g>
<g><path style="opacity:0.224" fill="#928370" d="M 109.5,226.5 C 110.525,226.897 110.692,227.563 110,228.5C 106.054,234.779 101.721,240.779 97,246.5C 96.3333,245.833 96.3333,245.167 97,244.5C 100.997,238.344 105.164,232.344 109.5,226.5 Z"/></g>
<g><path style="opacity:0.851" fill="#665445" d="M 99.5,225.5 C 98.7084,226.967 98.7084,228.3 99.5,229.5C 100.48,228.019 101.647,226.685 103,225.5C 98.8684,233.732 93.7018,241.398 87.5,248.5C 88.2916,247.033 88.2916,245.7 87.5,244.5C 86.16,245.867 84.8267,247.2 83.5,248.5C 83.1667,248.5 82.8333,248.5 82.5,248.5C 82.2593,244.981 83.5926,242.315 86.5,240.5C 87.404,239.791 87.7373,238.791 87.5,237.5C 89.3904,237.703 90.8904,237.037 92,235.5C 93.9789,231.7 96.4789,228.366 99.5,225.5 Z"/></g>
<g><path style="opacity:1" fill="#493420" d="M 320.5,249.5 C 320.5,250.167 320.167,250.5 319.5,250.5C 316.211,251.291 312.878,251.958 309.5,252.5C 307.97,252.36 306.97,251.693 306.5,250.5C 308.167,249.5 309.5,248.167 310.5,246.5C 312.25,243.645 313.083,240.311 313,236.5C 313.333,236.833 313.667,237.167 314,237.5C 315.975,236.25 317.141,234.917 317.5,233.5C 318.814,234.313 319.981,235.313 321,236.5C 321.629,240.871 321.463,245.204 320.5,249.5 Z"/></g>
<g><path style="opacity:0.953" fill="#736754" d="M 338.5,245.5 C 334.873,242.645 332.873,243.645 332.5,248.5C 333.5,248.5 334.5,248.5 335.5,248.5C 332.518,250.995 329.184,251.662 325.5,250.5C 326.6,249.442 327.934,248.608 329.5,248C 328.263,247.768 327.263,247.268 326.5,246.5C 328.167,246.5 329.833,246.5 331.5,246.5C 331.67,245.178 331.337,244.011 330.5,243C 333.146,242.503 335.813,242.336 338.5,242.5C 338.5,243.5 338.5,244.5 338.5,245.5 Z"/></g>
<g><path style="opacity:0.999" fill="#4d3721" d="M 428.5,265.5 C 428.764,258.11 428.43,250.777 427.5,243.5C 427.791,242.351 428.624,241.684 430,241.5C 432.462,240.841 434.962,240.507 437.5,240.5C 438.046,249.163 438.712,257.83 439.5,266.5C 440.308,266.808 440.975,267.308 441.5,268C 436.833,268.667 432.167,268.667 427.5,268C 428.252,267.329 428.586,266.496 428.5,265.5 Z"/></g>
<g><path style="opacity:0.298" fill="#827364" d="M 89.5,251.5 C 93.9855,242.538 99.4855,234.205 106,226.5C 106.667,227.167 106.667,227.833 106,228.5C 100.478,236.234 94.9783,243.9 89.5,251.5 Z"/></g>
<g><path style="opacity:0.999" fill="#4f3a22" d="M 133.5,237.5 C 136.506,243.53 139.006,249.864 141,256.5C 142.183,253.474 143.349,250.474 144.5,247.5C 146.474,245.572 147.974,243.239 149,240.5C 149.167,241.667 149.333,242.833 149.5,244C 147.453,250.352 145.787,256.852 144.5,263.5C 143.103,269.017 139.77,270.684 134.5,268.5C 132.578,259.567 129.745,250.9 126,242.5C 125.617,243.056 125.117,243.389 124.5,243.5C 123.886,239.865 123.552,236.198 123.5,232.5C 126.187,232.336 128.854,232.503 131.5,233C 132.099,234.622 132.766,236.122 133.5,237.5 Z"/></g>
<g><path style="opacity:1" fill="#4d3722" d="M 449.5,238.5 C 452.617,238.642 455.117,239.976 457,242.5C 458.247,249.779 458.747,257.112 458.5,264.5C 457.347,265.313 457.347,266.313 458.5,267.5C 454.167,268.833 449.833,268.833 445.5,267.5C 446.127,266.583 446.461,265.583 446.5,264.5C 446.015,258.925 446.015,253.258 446.5,247.5C 446.663,245.143 446.497,242.81 446,240.5C 444.534,242.325 442.701,242.825 440.5,242C 443.422,240.397 446.422,239.23 449.5,238.5 Z"/></g>
<g><path style="opacity:0.999" fill="#533d27" d="M 86.5,240.5 C 83.5926,242.315 82.2593,244.981 82.5,248.5C 78.8064,254.517 75.1397,260.517 71.5,266.5C 71.2624,268.404 70.2624,269.738 68.5,270.5C 68.5106,268.983 69.1772,267.816 70.5,267C 69.8333,266.333 69.1667,266.333 68.5,267C 64.9516,270.552 61.1182,273.719 57,276.5C 56.6608,279.036 56.1608,281.536 55.5,284C 53.0542,287.047 50.7208,290.214 48.5,293.5C 44.7717,294.277 41.105,294.611 37.5,294.5C 37.0133,295.446 36.6799,296.446 36.5,297.5C 38.7406,300.793 40.074,304.46 40.5,308.5C 41.1835,308.137 41.8501,307.804 42.5,307.5C 40.9522,311.061 38.9522,314.394 36.5,317.5C 37.6034,317.998 38.6034,318.331 39.5,318.5C 39.1445,319.522 38.4778,320.189 37.5,320.5C 36.4246,321.562 35.4246,321.562 34.5,320.5C 35.3256,319.549 35.4922,318.549 35,317.5C 33.8904,319.037 32.3904,319.703 30.5,319.5C 24.8762,312.813 21.8762,304.98 21.5,296C 21.0998,282.474 26.7665,271.474 38.5,263C 52.8736,256.154 66.5403,248.321 79.5,239.5C 78.0907,241.417 76.424,243.25 74.5,245C 74.8333,245.167 75.1667,245.333 75.5,245.5C 78.8333,243.167 82.1667,240.833 85.5,238.5C 86.2975,238.957 86.6309,239.624 86.5,240.5 Z"/></g>
<g><path style="opacity:0.084" fill="#796e60" d="M 247.5,231.5 C 250.565,230.182 253.731,230.182 257,231.5C 257.453,238.34 257.286,245.006 256.5,251.5C 256.5,252.833 256.5,254.167 256.5,255.5C 256.672,256.492 256.338,257.158 255.5,257.5C 255.5,248.833 255.5,240.167 255.5,231.5C 252.833,231.5 250.167,231.5 247.5,231.5 Z"/></g>
<g><path style="opacity:0.96" fill="#4a392a" d="M 200.5,266.5 C 200.372,264.345 200.872,262.345 202,260.5C 202.977,259.226 203.811,259.226 204.5,260.5C 205.152,263.152 206.819,264.819 209.5,265.5C 213.722,264.339 214.388,262.172 211.5,259C 202.946,257.137 199.112,251.97 200,243.5C 204.883,238.796 210.717,237.296 217.5,239C 220.234,239.573 222.234,241.073 223.5,243.5C 222.183,247.166 219.517,248.832 215.5,248.5C 216.328,243.325 214.328,241.325 209.5,242.5C 208.386,243.723 208.219,245.056 209,246.5C 213.536,249.433 218.203,252.1 223,254.5C 225.909,259.311 225.409,263.811 221.5,268C 218.185,268.941 214.852,269.774 211.5,270.5C 208.148,269.774 204.815,268.941 201.5,268C 200.944,267.617 200.611,267.117 200.5,266.5 Z"/></g>
<g><path style="opacity:0.11" fill="#7e705f" d="M 422.5,243.5 C 422.418,250.858 422.752,258.191 423.5,265.5C 422.833,265.5 422.167,265.5 421.5,265.5C 421.175,257.981 421.508,250.648 422.5,243.5 Z"/></g>
<g><path style="opacity:0.999" fill="#4e3720" d="M 470.5,268.5 C 469.432,267.566 468.099,267.232 466.5,267.5C 466.5,268.833 466.5,270.167 466.5,271.5C 471.179,271.334 475.845,271.501 480.5,272C 474.843,273.635 469.176,273.801 463.5,272.5C 462.058,270.183 462.392,268.016 464.5,266C 459.425,260.386 458.425,254.22 461.5,247.5C 463.63,245.873 465.63,244.04 467.5,242C 469.259,241.202 470.926,241.369 472.5,242.5C 472.192,243.308 471.692,243.975 471,244.5C 470.333,250.833 470.333,257.167 471,263.5C 472.087,265.752 473.921,267.085 476.5,267.5C 474.604,268.466 472.604,268.799 470.5,268.5 Z"/></g>
<g><path style="opacity:0.255" fill="#9b8c7a" d="M 82.5,248.5 C 82.8333,248.5 83.1667,248.5 83.5,248.5C 80.4893,255.197 76.4893,261.197 71.5,266.5C 75.1397,260.517 78.8064,254.517 82.5,248.5 Z"/></g>
<g><path style="opacity:1" fill="#4b3620" d="M 422.5,240.5 C 422.5,241.5 422.5,242.5 422.5,243.5C 421.508,250.648 421.175,257.981 421.5,265.5C 421.953,266.458 422.619,267.292 423.5,268C 419.129,268.828 414.795,268.661 410.5,267.5C 411.833,258.833 411.833,250.167 410.5,241.5C 414.445,240.509 418.445,240.176 422.5,240.5 Z"/></g>
<g><path style="opacity:0.349" fill="#715f50" d="M 134.5,268.5 C 131.605,262.363 128.938,256.029 126.5,249.5C 125.614,250.325 125.281,251.325 125.5,252.5C 124.523,249.713 124.19,246.713 124.5,243.5C 125.117,243.389 125.617,243.056 126,242.5C 129.745,250.9 132.578,259.567 134.5,268.5 Z"/></g>
<g><path style="opacity:0.553" fill="#55412e" d="M 186.5,269.5 C 189.977,268.677 193.644,268.177 197.5,268C 194.381,266.595 191.048,266.095 187.5,266.5C 187.184,258.248 187.518,250.081 188.5,242C 187.256,241.544 186.423,242.044 186,243.5C 184.893,242.288 184.393,242.621 184.5,244.5C 182.273,243.599 181.273,241.933 181.5,239.5C 186.473,238.836 191.473,238.503 196.5,238.5C 196.334,247.173 196.5,255.84 197,264.5C 197.956,265.579 198.789,266.745 199.5,268C 195.365,269.431 191.032,269.931 186.5,269.5 Z"/></g>
<g><path style="opacity:0.631" fill="#604e3c" d="M 163.5,249.5 C 164.328,254.357 165.162,259.357 166,264.5C 167.353,265.685 168.52,267.019 169.5,268.5C 163.167,269.833 156.833,269.833 150.5,268.5C 151.624,267.086 152.624,265.586 153.5,264C 152.505,257.905 151.672,251.738 151,245.5C 149.496,251.855 147.329,257.855 144.5,263.5C 145.787,256.852 147.453,250.352 149.5,244C 149.333,242.833 149.167,241.667 149,240.5C 147.974,243.239 146.474,245.572 144.5,247.5C 145.655,243.203 147.321,239.203 149.5,235.5C 150.222,235.082 150.722,234.416 151,233.5C 151.562,235.866 151.396,238.199 150.5,240.5C 150.667,241.167 150.833,241.833 151,242.5C 151.667,241.167 152.333,241.167 153,242.5C 153.394,249.905 154.228,257.238 155.5,264.5C 154.96,265.748 154.293,266.915 153.5,268C 157.871,268.828 162.205,268.661 166.5,267.5C 165.758,266.713 164.925,266.047 164,265.5C 163.501,260.177 163.334,254.844 163.5,249.5 Z"/></g>
<g><path style="opacity:0.945" fill="#39281a" d="M 307.5,230.5 C 309.954,231.621 312.621,232.454 315.5,233C 310.418,232.895 305.418,233.061 300.5,233.5C 297.5,233.5 294.5,233.5 291.5,233.5C 291.5,244.833 291.5,256.167 291.5,267.5C 290.448,267.649 289.448,267.483 288.5,267C 289.829,256.069 289.829,245.235 288.5,234.5C 287.5,234.167 286.833,233.5 286.5,232.5C 286.5,231.167 287.167,230.5 288.5,230.5C 294.984,230.356 301.317,230.356 307.5,230.5 Z"/></g>
<g><path style="opacity:0.616" fill="#8d7b50" d="M 488.5,247.5 C 489.926,249.679 490.592,252.179 490.5,255C 490.664,257.544 489.997,259.71 488.5,261.5C 488.5,256.833 488.5,252.167 488.5,247.5 Z"/></g>
<g><path style="opacity:0.999" fill="#533f28" d="M 180.5,263.5 C 179.566,264.568 179.232,265.901 179.5,267.5C 177.5,267.5 175.5,267.5 173.5,267.5C 170.087,266.054 168.087,263.387 167.5,259.5C 168.046,258.228 168.379,256.894 168.5,255.5C 167.89,251.514 167.39,247.514 167,243.5C 165.294,242.692 164.461,241.359 164.5,239.5C 169.473,238.836 174.473,238.503 179.5,238.5C 179.198,246.918 179.531,255.252 180.5,263.5 Z"/></g>
<g><path style="opacity:1" fill="#594025" d="M 71.5,250.5 C 72.5,250.5 73.5,250.5 74.5,250.5C 70.6649,259.168 64.8316,266.168 57,271.5C 54.9662,275.287 52.4662,278.787 49.5,282C 49.8333,282.333 50.1667,282.667 50.5,283C 47.555,285.616 45.3883,288.782 44,292.5C 42.0258,292.353 40.0258,292.019 38,291.5C 37,292.5 36,293.5 35,294.5C 35.3544,300.016 35.8544,305.35 36.5,310.5C 32.5618,314.153 29.7285,313.153 28,307.5C 27.0086,303.868 26.1752,300.201 25.5,296.5C 24.8647,291.146 25.5313,285.813 27.5,280.5C 30.6948,277.141 33.6948,273.641 36.5,270C 48.4763,263.758 60.1429,257.258 71.5,250.5 Z"/></g>
<g><path style="opacity:0.993" fill="#4a3722" d="M 236.5,238.5 C 237.5,238.5 238.5,238.5 239.5,238.5C 239.173,247.682 239.507,256.682 240.5,265.5C 240.5,266.5 240.5,267.5 240.5,268.5C 236.116,268.826 231.783,268.492 227.5,267.5C 228.816,259.372 228.816,251.372 227.5,243.5C 227.196,242.85 226.863,242.183 226.5,241.5C 229.447,240.679 232.447,240.179 235.5,240C 236.056,239.617 236.389,239.117 236.5,238.5 Z"/></g>
<g><path style="opacity:0.98" fill="#5f4f3d" d="M 227.5,243.5 C 228.816,251.372 228.816,259.372 227.5,267.5C 231.783,268.492 236.116,268.826 240.5,268.5C 240.5,267.5 240.5,266.5 240.5,265.5C 241.391,266.11 242.391,266.443 243.5,266.5C 245.397,267.805 247.731,268.471 250.5,268.5C 252.833,268.333 255.167,268.167 257.5,268C 257,267.5 256.5,267 256,266.5C 255.502,263.518 255.335,260.518 255.5,257.5C 256.338,257.158 256.672,256.492 256.5,255.5C 259.133,257.777 260.466,260.777 260.5,264.5C 259.732,263.737 259.232,262.737 259,261.5C 256.053,263.689 256.053,265.689 259,267.5C 259.717,266.956 260.217,266.289 260.5,265.5C 261.434,266.568 261.768,267.901 261.5,269.5C 249.159,270.4 236.826,270.067 224.5,268.5C 225.63,267.378 226.297,266.044 226.5,264.5C 227.491,257.687 227.825,250.687 227.5,243.5 Z"/></g>
<g><path style="opacity:0.055" fill="#796f5f" d="M 204.5,260.5 C 203.811,259.226 202.977,259.226 202,260.5C 200.872,262.345 200.372,264.345 200.5,266.5C 199.236,264.228 199.402,261.895 201,259.5C 202.494,258.253 203.994,258.253 205.5,259.5C 205.376,260.107 205.043,260.44 204.5,260.5 Z"/></g>
<g><path style="opacity:1" fill="#5b452f" d="M 300.5,233.5 C 299.855,239.089 299.522,244.755 299.5,250.5C 299.547,256.341 300.214,262.008 301.5,267.5C 297.353,268.167 293.353,268.834 289.5,269.5C 285.208,270.003 284.708,268.669 288,265.5C 288.5,255.172 288.666,244.839 288.5,234.5C 289.829,245.235 289.829,256.069 288.5,267C 289.448,267.483 290.448,267.649 291.5,267.5C 291.5,256.167 291.5,244.833 291.5,233.5C 294.5,233.5 297.5,233.5 300.5,233.5 Z"/></g>
<g><path style="opacity:1" fill="#45311e" d="M 484.5,266.5 C 483.833,266.833 483.167,267.167 482.5,267.5C 480.801,267.66 479.134,267.494 477.5,267C 479.914,263.434 480.581,259.601 479.5,255.5C 479.5,254.5 479.5,253.5 479.5,252.5C 479.665,249.482 479.498,246.482 479,243.5C 478.097,242.299 476.931,241.465 475.5,241C 478.212,240.262 480.545,240.929 482.5,243C 481.167,244 481.167,245 482.5,246C 484.075,245.621 485.575,245.788 487,246.5C 487.687,252.204 487.521,257.87 486.5,263.5C 485.448,263.351 484.448,263.517 483.5,264C 484.252,264.671 484.586,265.504 484.5,266.5 Z"/></g>
<g><path style="opacity:0.987" fill="#4c3e33" d="M 121.5,241.5 C 121.714,248.197 121.381,254.864 120.5,261.5C 120.833,262.5 121.167,263.5 121.5,264.5C 121.833,263.833 122.167,263.167 122.5,262.5C 122.991,259.326 123.657,256.326 124.5,253.5C 124.792,257.686 124.958,262.02 125,266.5C 125.692,267.025 126.192,267.692 126.5,268.5C 124.979,269.937 123.145,270.604 121,270.5C 115.465,270.391 114.465,268.391 118,264.5C 119.126,261.277 119.293,258.111 118.5,255C 120.585,252.163 120.919,249.163 119.5,246C 120.099,244.378 120.766,242.878 121.5,241.5 Z"/></g>
<g><path style="opacity:0.563" fill="#3f3428" d="M 186.5,269.5 C 182.818,269.665 179.152,269.499 175.5,269C 174.584,268.722 173.918,268.222 173.5,267.5C 175.5,267.5 177.5,267.5 179.5,267.5C 179.232,265.901 179.566,264.568 180.5,263.5C 181.183,265.176 182.517,265.843 184.5,265.5C 184.5,258.5 184.5,251.5 184.5,244.5C 184.393,242.621 184.893,242.288 186,243.5C 186.423,242.044 187.256,241.544 188.5,242C 187.518,250.081 187.184,258.248 187.5,266.5C 191.048,266.095 194.381,266.595 197.5,268C 193.644,268.177 189.977,268.677 186.5,269.5 Z"/></g>
<g><path style="opacity:0.889" fill="#52412f" d="M 325.5,250.5 C 329.184,251.662 332.518,250.995 335.5,248.5C 336.5,248.5 337.5,248.5 338.5,248.5C 338.5,247.5 338.5,246.5 338.5,245.5C 338.5,244.5 338.5,243.5 338.5,242.5C 335.813,242.336 333.146,242.503 330.5,243C 331.337,244.011 331.67,245.178 331.5,246.5C 329.833,246.5 328.167,246.5 326.5,246.5C 325.604,247.506 324.938,247.506 324.5,246.5C 325.254,243.909 326.921,242.076 329.5,241C 335.195,240.374 340.862,240.541 346.5,241.5C 347.458,241.953 348.292,242.619 349,243.5C 349.958,251.205 350.792,258.871 351.5,266.5C 352.88,267.706 354.047,267.373 355,265.5C 355.667,258.5 355.667,251.5 355,244.5C 353.322,243.534 352.655,242.201 353,240.5C 358.244,238.751 363.577,238.418 369,239.5C 373.557,237.009 378.057,237.175 382.5,240C 383.701,240.903 384.535,242.069 385,243.5C 385.333,250.833 385.667,258.167 386,265.5C 387.706,266.308 388.539,267.641 388.5,269.5C 368.164,269.667 347.831,269.5 327.5,269C 319.588,266.395 317.421,261.228 321,253.5C 322.129,251.859 323.629,250.859 325.5,250.5 Z M 337.5,252.5 C 338.645,256.311 338.812,260.311 338,264.5C 334.315,266.189 331.815,265.022 330.5,261C 330.551,256.128 332.884,253.294 337.5,252.5 Z M 370.5,243.5 C 372.173,244.343 373.34,245.676 374,247.5C 374.667,253.167 374.667,258.833 374,264.5C 372.867,266.211 371.367,266.711 369.5,266C 368.577,263.959 368.244,261.792 368.5,259.5C 367.963,253.865 368.63,248.532 370.5,243.5 Z"/></g>
<g><path style="opacity:0.055" fill="#9e9c96" d="M 370.5,243.5 C 368.63,248.532 367.963,253.865 368.5,259.5C 367.512,254.36 367.179,249.026 367.5,243.5C 368.5,243.5 369.5,243.5 370.5,243.5 Z"/></g>
<g><path style="opacity:0.996" fill="#48311d" d="M 359.5,240.5 C 361.833,240.5 364.167,240.5 366.5,240.5C 365.9,249.697 366.567,258.697 368.5,267.5C 364.167,268.833 359.833,268.833 355.5,267.5C 357.053,259.539 357.386,251.539 356.5,243.5C 355.692,243.192 355.025,242.692 354.5,242C 356.382,241.802 358.048,241.302 359.5,240.5 Z"/></g>
<g><path style="opacity:0.87" fill="#322518" d="M 351.5,266.5 C 348.062,267.823 344.229,268.49 340,268.5C 336.167,268.333 332.333,268.167 328.5,268C 329.167,267.667 329.833,267.333 330.5,267C 336.167,266.758 341.833,266.925 347.5,267.5C 347.334,260.492 347.5,253.492 348,246.5C 348.333,252.833 348.667,259.167 349,265.5C 349.671,266.252 350.504,266.586 351.5,266.5 Z"/></g>
<g><path style="opacity:0.898" fill="#605247" d="M 87.5,248.5 C 87.4606,249.583 87.1272,250.583 86.5,251.5C 87.4246,252.562 88.4246,252.562 89.5,251.5C 88.5652,253.861 87.2318,256.028 85.5,258C 86.3523,259.728 87.3523,259.895 88.5,258.5C 87.5667,261.37 85.9,263.704 83.5,265.5C 84.2916,264.033 84.2916,262.7 83.5,261.5C 80.2433,266.346 76.7433,271.012 73,275.5C 72.6666,273.953 73.1666,272.62 74.5,271.5C 74.1667,271.167 73.8333,270.833 73.5,270.5C 72.1851,272.316 70.6851,273.983 69,275.5C 74.4694,266.166 80.6361,257.166 87.5,248.5 Z"/></g>
<g><path style="opacity:0.431" fill="#4a3929" d="M 261.5,269.5 C 261.768,267.901 261.434,266.568 260.5,265.5C 260.5,265.167 260.5,264.833 260.5,264.5C 260.466,260.777 259.133,257.777 256.5,255.5C 256.5,254.167 256.5,252.833 256.5,251.5C 257.222,251.918 257.722,252.584 258,253.5C 261.518,249.128 263.352,244.128 263.5,238.5C 266.85,238.335 270.183,238.502 273.5,239C 273.957,239.414 274.291,239.914 274.5,240.5C 270.58,243.25 267.58,246.75 265.5,251C 268.183,257.341 272.016,262.841 277,267.5C 277.483,268.448 277.649,269.448 277.5,270.5C 271.904,269.583 266.571,269.249 261.5,269.5 Z"/></g>
<g><path style="opacity:0.004" fill="#fefffe" d="M 279.5,269.5 C 280.833,270.167 280.833,270.167 279.5,269.5 Z"/></g>
<g><path style="opacity:0.106" fill="#9f845c" d="M 137.5,272.5 C 136.833,272.5 136.167,272.5 135.5,272.5C 132.833,272.5 130.167,272.5 127.5,272.5C 123.351,271.92 119.684,272.586 116.5,274.5C 115.596,273.791 115.263,272.791 115.5,271.5C 123.019,271.175 130.352,271.508 137.5,272.5 Z"/></g>
<g><path style="opacity:0.388" fill="#b7a98f" d="M 466.5,275.5 C 466.5,275.167 466.5,274.833 466.5,274.5C 468.95,274.298 471.283,274.631 473.5,275.5C 472.766,276.708 472.433,278.041 472.5,279.5C 471.609,278.739 470.942,277.739 470.5,276.5C 469.311,275.571 467.978,275.238 466.5,275.5 Z"/></g>
<g><path style="opacity:1" fill="#533c23" d="M 255.5,272.5 C 256.568,271.566 257.901,271.232 259.5,271.5C 259.334,279.84 259.5,288.173 260,296.5C 261.979,292.7 264.479,289.366 267.5,286.5C 266.459,289.094 265.126,291.594 263.5,294C 264.615,295.235 264.615,296.402 263.5,297.5C 264.587,298.105 265.754,297.772 267,296.5C 267.837,298.351 268.671,300.184 269.5,302C 267.723,304.152 266.223,303.985 265,301.5C 264.506,303.134 264.34,304.801 264.5,306.5C 262.388,302.299 261.055,302.633 260.5,307.5C 259.85,307.196 259.183,306.863 258.5,306.5C 256.132,308.223 253.466,308.89 250.5,308.5C 250.5,297.5 250.5,286.5 250.5,275.5C 253.167,275.5 255.833,275.5 258.5,275.5C 258.5,274.5 258.5,273.5 258.5,272.5C 257.5,272.5 256.5,272.5 255.5,272.5 Z"/></g>
<g><path style="opacity:0.576" fill="#423938" d="M 87.5,248.5 C 80.6361,257.166 74.4694,266.166 69,275.5C 70.6851,273.983 72.1851,272.316 73.5,270.5C 73.8333,270.833 74.1667,271.167 74.5,271.5C 73.1666,272.62 72.6666,273.953 73,275.5C 76.7433,271.012 80.2433,266.346 83.5,261.5C 84.2916,262.7 84.2916,264.033 83.5,265.5C 81.1975,267.978 79.0308,270.645 77,273.5C 76.51,274.793 76.3433,276.127 76.5,277.5C 75.7321,279.715 75.0654,282.048 74.5,284.5C 73.8333,284.5 73.5,284.833 73.5,285.5C 72.1667,285.833 72.1667,286.167 73.5,286.5C 69.7981,288.687 66.4648,291.354 63.5,294.5C 63.5394,293.417 63.8728,292.417 64.5,291.5C 63.9984,290.479 63.3317,290.312 62.5,291C 60.841,293.844 58.841,296.344 56.5,298.5C 56.7031,296.956 57.3698,295.622 58.5,294.5C 57.3966,294.002 56.3966,293.669 55.5,293.5C 56.8333,291.5 58.1667,289.5 59.5,287.5C 58.3966,287.002 57.3966,286.669 56.5,286.5C 57.6302,285.378 58.2969,284.044 58.5,282.5C 60.636,280.188 62.636,277.688 64.5,275C 64.2716,274.601 63.9382,274.435 63.5,274.5C 65.1423,273.197 66.8089,271.864 68.5,270.5C 70.2624,269.738 71.2624,268.404 71.5,266.5C 76.4893,261.197 80.4893,255.197 83.5,248.5C 84.8267,247.2 86.16,245.867 87.5,244.5C 88.2916,245.7 88.2916,247.033 87.5,248.5 Z"/></g>
<g><path style="opacity:0.996" fill="#4a3d2e" d="M 487.5,280.5 C 487.084,282.752 485.751,284.252 483.5,285C 476.582,287.578 470.416,286.411 465,281.5C 464.257,279.126 464.757,277.126 466.5,275.5C 467.978,275.238 469.311,275.571 470.5,276.5C 470.942,277.739 471.609,278.739 472.5,279.5C 473.29,280.401 474.29,281.068 475.5,281.5C 479.068,280.031 479.402,277.864 476.5,275C 483.522,270.51 487.188,272.344 487.5,280.5 Z M 473.5,275.5 C 477.667,276.481 478.334,278.481 475.5,281.5C 474.29,281.068 473.29,280.401 472.5,279.5C 472.433,278.041 472.766,276.708 473.5,275.5 Z"/></g>
<g><path style="opacity:0.009" fill="#f1efef" d="M 276.5,281.5 C 272.821,281.06 269.488,281.727 266.5,283.5C 266.5,282.5 266.5,281.5 266.5,280.5C 270.042,280.187 273.375,280.521 276.5,281.5 Z"/></g>
<g><path style="opacity:0.745" fill="#3b2b1b" d="M 195.5,281.5 C 196.978,281.238 198.311,281.571 199.5,282.5C 196.973,283.214 194.473,283.88 192,284.5C 191.5,292.159 191.334,299.826 191.5,307.5C 194.167,307.5 196.833,307.5 199.5,307.5C 199.177,300.978 199.51,294.645 200.5,288.5C 200.167,295.262 200.5,301.262 201.5,306.5C 202.167,306.5 202.5,306.833 202.5,307.5C 200.429,308.809 197.929,309.475 195,309.5C 192.31,309.497 189.81,309.164 187.5,308.5C 188.167,308.167 188.833,307.833 189.5,307.5C 190.655,300.345 190.822,293.012 190,285.5C 187.988,284.434 187.488,283.1 188.5,281.5C 191.041,281.15 193.374,281.15 195.5,281.5 Z"/></g>
<g><path style="opacity:0.961" fill="#433528" d="M 255.5,272.5 C 256.5,272.5 257.5,272.5 258.5,272.5C 258.5,273.5 258.5,274.5 258.5,275.5C 255.833,275.5 253.167,275.5 250.5,275.5C 250.5,286.5 250.5,297.5 250.5,308.5C 253.466,308.89 256.132,308.223 258.5,306.5C 259.183,306.863 259.85,307.196 260.5,307.5C 261.167,307.5 261.5,307.833 261.5,308.5C 256.6,309.8 251.6,309.8 246.5,308.5C 246.918,307.778 247.584,307.278 248.5,307C 247.762,302.251 247.762,297.418 248.5,292.5C 248.183,287.15 247.683,281.816 247,276.5C 245.383,275.464 245.216,274.297 246.5,273C 249.482,272.502 252.482,272.335 255.5,272.5 Z"/></g>
<g><path style="opacity:1" fill="#523d27" d="M 375.5,280.5 C 380.415,280.686 385.415,280.853 390.5,281C 391.942,281.377 392.942,282.21 393.5,283.5C 394.271,291.453 394.771,299.453 395,307.5C 395.5,308 396,308.5 396.5,309C 394.167,309.167 391.833,309.333 389.5,309.5C 386.731,309.471 384.397,308.805 382.5,307.5C 383.819,300.656 383.819,293.656 382.5,286.5C 381.274,285.637 379.94,285.637 378.5,286.5C 376.539,293.087 375.872,300.087 376.5,307.5C 374.167,307.5 371.833,307.5 369.5,307.5C 369.334,300.159 369.5,292.826 370,285.5C 372,284.167 374,284.167 376,285.5C 376.64,283.735 376.473,282.068 375.5,280.5 Z"/></g>
<g><path style="opacity:1" fill="#513c26" d="M 217.5,284.5 C 216.89,285.391 216.557,286.391 216.5,287.5C 214.304,287.59 212.137,287.923 210,288.5C 207.783,287.953 205.783,286.953 204,285.5C 203.098,285.743 202.265,286.077 201.5,286.5C 200.58,285.933 200.246,286.599 200.5,288.5C 199.51,294.645 199.177,300.978 199.5,307.5C 196.833,307.5 194.167,307.5 191.5,307.5C 191.334,299.826 191.5,292.159 192,284.5C 194.473,283.88 196.973,283.214 199.5,282.5C 198.311,281.571 196.978,281.238 195.5,281.5C 196.531,280.751 197.698,280.085 199,279.5C 201.885,281.885 204.885,281.885 208,279.5C 211.634,280.525 214.801,282.192 217.5,284.5 Z"/></g>
<g><path style="opacity:0.192" fill="#5b4b3d" d="M 365.5,282.5 C 365.461,283.756 365.961,284.756 367,285.5C 367.821,292.679 367.655,299.679 366.5,306.5C 366.666,299.825 366.5,293.158 366,286.5C 363.148,285.093 362.982,283.759 365.5,282.5 Z"/></g>
<g><path style="opacity:1" fill="#4f3921" d="M 297.5,281.5 C 303.67,281.503 307.504,284.503 309,290.5C 308.489,296.226 308.656,301.893 309.5,307.5C 306.576,309.843 303.243,310.176 299.5,308.5C 300.095,299.235 299.428,290.235 297.5,281.5 Z"/></g>
<g><path style="opacity:0.996" fill="#463526" d="M 68.5,270.5 C 66.8089,271.864 65.1423,273.197 63.5,274.5C 60.3182,276.193 58.6516,278.859 58.5,282.5C 58.2969,284.044 57.6302,285.378 56.5,286.5C 57.3966,286.669 58.3966,287.002 59.5,287.5C 58.1667,289.5 56.8333,291.5 55.5,293.5C 56.3966,293.669 57.3966,294.002 58.5,294.5C 57.3698,295.622 56.7031,296.956 56.5,298.5C 54.4503,300.237 52.617,302.237 51,304.5C 51.4076,302.039 52.0742,299.706 53,297.5C 51.647,298.685 50.4803,300.019 49.5,301.5C 48.9041,300.284 48.7374,298.951 49,297.5C 47.3005,298.406 45.4672,298.739 43.5,298.5C 41.7708,297.883 40.2708,296.883 39,295.5C 38.5,296 38,296.5 37.5,297C 39.6838,298.363 41.6838,299.863 43.5,301.5C 43.4828,303.565 43.1495,305.565 42.5,307.5C 41.8501,307.804 41.1835,308.137 40.5,308.5C 40.074,304.46 38.7406,300.793 36.5,297.5C 36.6799,296.446 37.0133,295.446 37.5,294.5C 41.105,294.611 44.7717,294.277 48.5,293.5C 50.7208,290.214 53.0542,287.047 55.5,284C 56.1608,281.536 56.6608,279.036 57,276.5C 61.1182,273.719 64.9516,270.552 68.5,267C 69.1667,266.333 69.8333,266.333 70.5,267C 69.1772,267.816 68.5106,268.983 68.5,270.5 Z M 43.5,298.5 C 44.4293,299.315 45.4293,300.148 46.5,301C 45.6477,302.728 44.6477,302.895 43.5,301.5C 41.6838,299.863 39.6838,298.363 37.5,297C 38,296.5 38.5,296 39,295.5C 40.2708,296.883 41.7708,297.883 43.5,298.5 Z"/></g>
<g><path style="opacity:0.996" fill="#453525" d="M 243.5,307.5 C 242.306,308.777 240.64,309.444 238.5,309.5C 232.709,308.715 227.042,309.048 221.5,310.5C 212.152,308.809 209.318,303.476 213,294.5C 215.682,292.415 218.516,290.748 221.5,289.5C 221.833,289.5 222.167,289.5 222.5,289.5C 222.5,290.167 222.833,290.5 223.5,290.5C 225.288,290.215 226.955,290.548 228.5,291.5C 226.668,292.248 225.001,293.248 223.5,294.5C 220.207,293.031 217.373,293.698 215,296.5C 212.635,303.62 215.135,307.286 222.5,307.5C 222.285,305.821 222.952,304.821 224.5,304.5C 224.484,306.484 225.484,307.484 227.5,307.5C 229.038,307.547 230.038,306.88 230.5,305.5C 231.707,299.346 232.207,293.013 232,286.5C 230.938,285.101 229.605,284.101 228,283.5C 225.566,284.322 223.066,284.656 220.5,284.5C 220.5,285.5 220.5,286.5 220.5,287.5C 219.209,287.263 218.209,287.596 217.5,288.5C 216.833,288.5 216.5,288.167 216.5,287.5C 216.557,286.391 216.89,285.391 217.5,284.5C 226.105,278.846 234.271,279.512 242,286.5C 242.5,293.506 243,300.506 243.5,307.5 Z M 230.5,305.5 C 230.038,306.88 229.038,307.547 227.5,307.5C 225.484,307.484 224.484,306.484 224.5,304.5C 222.093,298.308 224.093,294.642 230.5,293.5C 230.5,297.5 230.5,301.5 230.5,305.5 Z"/></g>
<g><path style="opacity:0.999" fill="#543b22" d="M 233.5,285.5 C 235.722,285.178 237.556,285.845 239,287.5C 239.5,294.158 239.666,300.825 239.5,307.5C 237.5,307.5 235.5,307.5 233.5,307.5C 233.5,300.167 233.5,292.833 233.5,285.5 Z"/></g>
<g><path style="opacity:0.988" fill="#3f3125" d="M 297.5,281.5 C 299.428,290.235 300.095,299.235 299.5,308.5C 295.035,309.736 290.701,309.736 286.5,308.5C 288.5,308.167 290.5,307.833 292.5,307.5C 293.675,307.719 294.675,307.386 295.5,306.5C 296.423,303.553 297.089,300.553 297.5,297.5C 297.666,293.486 297.499,289.486 297,285.5C 296.5,285 296,284.5 295.5,284C 291.09,284.687 286.757,285.853 282.5,287.5C 282.118,284.962 283.451,283.129 286.5,282C 290.28,280.515 293.946,280.348 297.5,281.5 Z"/></g>
<g><path style="opacity:1" fill="#543f2a" d="M 127.5,272.5 C 124.359,273.321 121.025,273.821 117.5,274C 120.817,274.498 124.15,274.665 127.5,274.5C 127.812,285.885 127.478,297.218 126.5,308.5C 130.795,309.661 135.129,309.828 139.5,309C 138.756,307.961 137.756,307.461 136.5,307.5C 138.144,306.684 139.31,305.35 140,303.5C 139.786,300.726 139.786,298.06 140,295.5C 137.961,291.864 134.794,290.198 130.5,290.5C 131.741,289.716 133.741,289.049 136.5,288.5C 134.716,287.394 132.882,287.394 131,288.5C 129.282,287.969 129.115,287.302 130.5,286.5C 134.427,286.744 136.76,284.91 137.5,281C 136.9,277.564 134.9,275.731 131.5,275.5C 134.699,274.102 137.199,275.102 139,278.5C 140.464,275.113 142.464,275.113 145,278.5C 145.507,277.004 145.007,275.837 143.5,275C 140.621,274.454 137.954,273.621 135.5,272.5C 136.167,272.5 136.833,272.5 137.5,272.5C 143.864,272.197 147.53,275.197 148.5,281.5C 148.045,284.251 146.711,286.418 144.5,288C 148.77,289.27 151.27,292.104 152,296.5C 154.266,293.067 157.432,291.067 161.5,290.5C 158.511,291.735 156.178,293.902 154.5,297C 154.667,297.5 154.833,298 155,298.5C 156.816,296.559 158.816,295.892 161,296.5C 161.499,300.152 161.665,303.818 161.5,307.5C 160.448,307.351 159.448,307.517 158.5,308C 159.756,308.417 160.423,309.25 160.5,310.5C 155.628,309.984 152.795,307.317 152,302.5C 150.86,306.307 148.36,308.807 144.5,310C 134.816,310.832 125.149,310.665 115.5,309.5C 116.806,308.088 117.64,306.421 118,304.5C 119.028,294.353 118.528,284.353 116.5,274.5C 119.684,272.586 123.351,271.92 127.5,272.5 Z M 130.5,290.5 C 134.794,290.198 137.961,291.864 140,295.5C 139.786,298.06 139.786,300.726 140,303.5C 139.31,305.35 138.144,306.684 136.5,307.5C 133.654,307.97 131.321,307.137 129.5,305C 129.879,300.163 130.212,295.329 130.5,290.5 Z M 131.5,275.5 C 134.9,275.731 136.9,277.564 137.5,281C 136.76,284.91 134.427,286.744 130.5,286.5C 130.784,283.223 130.451,280.057 129.5,277C 130.044,276.283 130.711,275.783 131.5,275.5 Z"/></g>
<g><path style="opacity:0.96" fill="#342719" d="M 127.5,272.5 C 130.167,272.5 132.833,272.5 135.5,272.5C 137.954,273.621 140.621,274.454 143.5,275C 145.007,275.837 145.507,277.004 145,278.5C 142.464,275.113 140.464,275.113 139,278.5C 137.199,275.102 134.699,274.102 131.5,275.5C 130.711,275.783 130.044,276.283 129.5,277C 130.451,280.057 130.784,283.223 130.5,286.5C 129.115,287.302 129.282,287.969 131,288.5C 132.882,287.394 134.716,287.394 136.5,288.5C 133.741,289.049 131.741,289.716 130.5,290.5C 130.212,295.329 129.879,300.163 129.5,305C 131.321,307.137 133.654,307.97 136.5,307.5C 137.756,307.461 138.756,307.961 139.5,309C 135.129,309.828 130.795,309.661 126.5,308.5C 127.478,297.218 127.812,285.885 127.5,274.5C 124.15,274.665 120.817,274.498 117.5,274C 121.025,273.821 124.359,273.321 127.5,272.5 Z"/></g>
<g><path style="opacity:0.159" fill="#70584b" d="M 188.5,281.5 C 187.488,283.1 187.988,284.434 190,285.5C 190.822,293.012 190.655,300.345 189.5,307.5C 189.666,300.492 189.5,293.492 189,286.5C 186.182,284.694 186.016,283.028 188.5,281.5 Z"/></g>
<g><path style="opacity:1" fill="#513e2b" d="M 230.5,305.5 C 230.5,301.5 230.5,297.5 230.5,293.5C 224.093,294.642 222.093,298.308 224.5,304.5C 222.952,304.821 222.285,305.821 222.5,307.5C 215.135,307.286 212.635,303.62 215,296.5C 217.373,293.698 220.207,293.031 223.5,294.5C 225.001,293.248 226.668,292.248 228.5,291.5C 226.955,290.548 225.288,290.215 223.5,290.5C 222.833,290.5 222.5,290.167 222.5,289.5C 222.167,289.5 221.833,289.5 221.5,289.5C 220.292,288.766 218.959,288.433 217.5,288.5C 218.209,287.596 219.209,287.263 220.5,287.5C 220.5,286.5 220.5,285.5 220.5,284.5C 223.066,284.656 225.566,284.322 228,283.5C 229.605,284.101 230.938,285.101 232,286.5C 232.207,293.013 231.707,299.346 230.5,305.5 Z M 226.5,285.5 C 229.5,285.167 230.833,286.5 230.5,289.5C 228.5,289.5 226.5,289.5 224.5,289.5C 224.527,287.801 225.194,286.467 226.5,285.5 Z"/></g>
<g><path style="opacity:0.816" fill="#3f3122" d="M 375.5,280.5 C 376.473,282.068 376.64,283.735 376,285.5C 374,284.167 372,284.167 370,285.5C 369.5,292.826 369.334,300.159 369.5,307.5C 371.833,307.5 374.167,307.5 376.5,307.5C 375.872,300.087 376.539,293.087 378.5,286.5C 377.914,288.243 377.581,290.076 377.5,292C 378.168,297.482 378.835,302.649 379.5,307.5C 377.429,308.809 374.929,309.475 372,309.5C 369.31,309.497 366.81,309.164 364.5,308.5C 365.5,308.167 366.167,307.5 366.5,306.5C 367.655,299.679 367.821,292.679 367,285.5C 365.961,284.756 365.461,283.756 365.5,282.5C 366.261,281.609 367.261,280.942 368.5,280.5C 371.095,281.22 373.429,281.22 375.5,280.5 Z"/></g>
<g><path style="opacity:0.078" fill="#b2a382" d="M 201.5,286.5 C 201.597,293.377 201.597,300.044 201.5,306.5C 200.5,301.262 200.167,295.262 200.5,288.5C 200.246,286.599 200.58,285.933 201.5,286.5 Z"/></g>
<g><path style="opacity:1" fill="#493827" d="M 184.5,307.5 C 177.054,309.153 169.388,310.153 161.5,310.5C 161.167,310.5 160.833,310.5 160.5,310.5C 160.423,309.25 159.756,308.417 158.5,308C 159.448,307.517 160.448,307.351 161.5,307.5C 161.665,303.818 161.499,300.152 161,296.5C 158.816,295.892 156.816,296.559 155,298.5C 154.833,298 154.667,297.5 154.5,297C 156.178,293.902 158.511,291.735 161.5,290.5C 162.239,290.631 162.906,290.464 163.5,290C 155.236,288.846 154.57,286.179 161.5,282C 168.106,279.92 174.439,280.586 180.5,284C 181.667,285.833 182.833,287.667 184,289.5C 183.949,295.582 184.115,301.582 184.5,307.5 Z M 171.5,292.5 C 172.645,296.311 172.812,300.311 172,304.5C 170.522,307.993 168.522,308.326 166,305.5C 162.953,298.939 164.787,294.605 171.5,292.5 Z M 167.5,285.5 C 170.5,285.167 171.833,286.5 171.5,289.5C 169.473,289.662 167.473,289.495 165.5,289C 166.305,287.887 166.972,286.721 167.5,285.5 Z"/></g>
<g><path style="opacity:0.835" fill="#5b4f47" d="M 56.5,298.5 C 52.2678,305.282 47.7678,311.949 43,318.5C 44.2548,314.854 46.0882,311.354 48.5,308C 48.3333,307.5 48.1667,307 48,306.5C 44.9363,311.958 43.9363,311.624 45,305.5C 44.2917,306.381 43.4584,307.047 42.5,307.5C 43.1495,305.565 43.4828,303.565 43.5,301.5C 44.6477,302.895 45.6477,302.728 46.5,301C 45.4293,300.148 44.4293,299.315 43.5,298.5C 45.4672,298.739 47.3005,298.406 49,297.5C 48.7374,298.951 48.9041,300.284 49.5,301.5C 50.4803,300.019 51.647,298.685 53,297.5C 52.0742,299.706 51.4076,302.039 51,304.5C 52.617,302.237 54.4503,300.237 56.5,298.5 Z"/></g>
<g><path style="opacity:0.999" fill="#523e2b" d="M 329.5,305.5 C 329.714,307.144 329.38,308.644 328.5,310C 324.167,312 319.833,312 315.5,310C 314.056,308.237 313.056,306.237 312.5,304C 313.674,298.197 313.507,292.364 312,286.5C 310.842,286.002 310.009,285.169 309.5,284C 314.227,280.97 319.227,278.47 324.5,276.5C 324.5,278.167 324.5,279.833 324.5,281.5C 326.167,281.5 327.833,281.5 329.5,281.5C 329.5,282.833 329.5,284.167 329.5,285.5C 327.833,285.5 326.167,285.5 324.5,285.5C 324.823,291.436 324.823,297.269 324.5,303C 325.617,304.892 327.284,305.725 329.5,305.5 Z"/></g>
<g><path style="opacity:0.992" fill="#4b3824" d="M 362.5,308.5 C 354.647,308.486 346.647,308.652 338.5,309C 336.782,308.654 335.115,308.154 333.5,307.5C 332.849,305.153 331.516,303.486 329.5,302.5C 329.003,294.823 332.669,290.657 340.5,290C 332.236,288.846 331.57,286.179 338.5,282C 358.229,278.4 365.562,286.4 360.5,306C 361.381,306.708 362.047,307.542 362.5,308.5 Z M 348.5,292.5 C 348.566,296.026 348.899,299.692 349.5,303.5C 348.285,307.74 346.118,308.407 343,305.5C 339.953,298.939 341.787,294.605 348.5,292.5 Z M 348.5,289.5 C 346.833,289.5 345.167,289.5 343.5,289.5C 343.35,285.839 344.85,284.839 348,286.5C 348.483,287.448 348.649,288.448 348.5,289.5 Z"/></g>
<g><path style="opacity:0.998" fill="#4a3927" d="M 276.5,281.5 C 277.525,281.897 277.692,282.563 277,283.5C 273.466,285.37 270.966,288.204 269.5,292C 271.53,296.561 273.697,301.061 276,305.5C 276.671,306.252 277.504,306.586 278.5,306.5C 278.414,307.496 278.748,308.329 279.5,309C 277,309.167 274.5,309.333 272,309.5C 269.071,309.475 266.571,308.809 264.5,307.5C 264.5,307.167 264.5,306.833 264.5,306.5C 264.34,304.801 264.506,303.134 265,301.5C 266.223,303.985 267.723,304.152 269.5,302C 268.671,300.184 267.837,298.351 267,296.5C 265.754,297.772 264.587,298.105 263.5,297.5C 264.615,296.402 264.615,295.235 263.5,294C 265.126,291.594 266.459,289.094 267.5,286.5C 267.443,285.391 267.11,284.391 266.5,283.5C 269.488,281.727 272.821,281.06 276.5,281.5 Z"/></g>
<g><path style="opacity:0.959" fill="#4f3e2b" d="M 297.5,297.5 C 296.566,296.432 296.232,295.099 296.5,293.5C 290.608,294.264 288.441,297.598 290,303.5C 290.48,305.133 291.313,306.466 292.5,307.5C 290.5,307.833 288.5,308.167 286.5,308.5C 282.808,308.483 279.808,307.15 277.5,304.5C 275.676,295.492 279.343,290.658 288.5,290C 286.389,289.155 284.389,288.322 282.5,287.5C 286.757,285.853 291.09,284.687 295.5,284C 296,284.5 296.5,285 297,285.5C 297.499,289.486 297.666,293.486 297.5,297.5 Z M 292.5,285.5 C 295.5,285.167 296.833,286.5 296.5,289.5C 294.473,289.662 292.473,289.495 290.5,289C 291.305,287.887 291.972,286.721 292.5,285.5 Z"/></g>
<g><path style="opacity:0.357" fill="#685a4f" d="M 184.5,307.5 C 185.391,308.11 186.391,308.443 187.5,308.5C 189.81,309.164 192.31,309.497 195,309.5C 197.929,309.475 200.429,308.809 202.5,307.5C 203.478,307.811 204.145,308.478 204.5,309.5C 190.182,310.499 175.849,310.833 161.5,310.5C 169.388,310.153 177.054,309.153 184.5,307.5 Z"/></g>
<g><path style="opacity:0.286" fill="#65594f" d="M 277.5,304.5 C 279.808,307.15 282.808,308.483 286.5,308.5C 290.701,309.736 295.035,309.736 299.5,308.5C 303.243,310.176 306.576,309.843 309.5,307.5C 310.478,307.811 311.145,308.478 311.5,309.5C 307.959,310.2 304.459,310.867 301,311.5C 294.864,310.814 288.698,310.147 282.5,309.5C 262.213,310.488 241.879,310.821 221.5,310.5C 227.042,309.048 232.709,308.715 238.5,309.5C 240.64,309.444 242.306,308.777 243.5,307.5C 244.391,308.11 245.391,308.443 246.5,308.5C 251.6,309.8 256.6,309.8 261.5,308.5C 262.117,308.611 262.617,308.944 263,309.5C 263.278,308.584 263.778,307.918 264.5,307.5C 266.571,308.809 269.071,309.475 272,309.5C 274.5,309.333 277,309.167 279.5,309C 278.748,308.329 278.414,307.496 278.5,306.5C 278.167,305.833 277.833,305.167 277.5,304.5 Z"/></g>
<g><path style="opacity:0.329" fill="#6b6051" d="M 393.5,283.5 C 394.79,284.058 395.623,285.058 396,286.5C 396.037,294.65 396.871,302.65 398.5,310.5C 379.257,310.174 360.09,310.507 341,311.5C 336.322,310.913 332.488,308.913 329.5,305.5C 329.5,304.5 329.5,303.5 329.5,302.5C 331.516,303.486 332.849,305.153 333.5,307.5C 335.115,308.154 336.782,308.654 338.5,309C 346.647,308.652 354.647,308.486 362.5,308.5C 363.167,308.5 363.833,308.5 364.5,308.5C 366.81,309.164 369.31,309.497 372,309.5C 374.929,309.475 377.429,308.809 379.5,307.5C 380.5,308.833 381.5,308.833 382.5,307.5C 384.397,308.805 386.731,309.471 389.5,309.5C 391.833,309.333 394.167,309.167 396.5,309C 396,308.5 395.5,308 395,307.5C 394.771,299.453 394.271,291.453 393.5,283.5 Z"/></g>
<g><path style="opacity:0.894" fill="#402f25" d="M 63.5,294.5 C 61.7376,295.262 60.7376,296.596 60.5,298.5C 58.3497,300.76 56.1831,303.093 54,305.5C 50.4523,312.099 46.2856,318.265 41.5,324C 40.8333,324.667 40.1667,324.667 39.5,324C 40.6734,320.89 40.1734,320.723 38,323.5C 37.5172,322.552 37.3505,321.552 37.5,320.5C 38.4778,320.189 39.1445,319.522 39.5,318.5C 38.6034,318.331 37.6034,317.998 36.5,317.5C 38.9522,314.394 40.9522,311.061 42.5,307.5C 43.4584,307.047 44.2917,306.381 45,305.5C 43.9363,311.624 44.9363,311.958 48,306.5C 48.1667,307 48.3333,307.5 48.5,308C 46.0882,311.354 44.2548,314.854 43,318.5C 47.7678,311.949 52.2678,305.282 56.5,298.5C 58.841,296.344 60.841,293.844 62.5,291C 63.3317,290.312 63.9984,290.479 64.5,291.5C 63.8728,292.417 63.5394,293.417 63.5,294.5 Z"/></g>
<g><path style="opacity:0.133" fill="#6a5a4e" d="M 60.5,298.5 C 59.4434,300.941 58.11,303.275 56.5,305.5C 58.0063,307.401 59.6729,309.068 61.5,310.5C 59.8297,310.249 58.3297,309.582 57,308.5C 56.5172,309.448 56.3505,310.448 56.5,311.5C 54.9318,309.069 53.4318,309.069 52,311.5C 49,315.833 46,320.167 43,324.5C 42.5172,325.448 42.3505,326.448 42.5,327.5C 44.4832,327.157 45.8166,327.824 46.5,329.5C 44.3881,328.725 42.3881,328.725 40.5,329.5C 40.719,328.325 40.3857,327.325 39.5,326.5C 36.8463,325.164 34.513,323.497 32.5,321.5C 31.8333,320.833 31.1667,320.167 30.5,319.5C 32.3904,319.703 33.8904,319.037 35,317.5C 35.4922,318.549 35.3256,319.549 34.5,320.5C 35.4246,321.562 36.4246,321.562 37.5,320.5C 37.3505,321.552 37.5172,322.552 38,323.5C 40.1734,320.723 40.6734,320.89 39.5,324C 40.1667,324.667 40.8333,324.667 41.5,324C 46.2856,318.265 50.4523,312.099 54,305.5C 56.1831,303.093 58.3497,300.76 60.5,298.5 Z"/></g>
<g><path style="opacity:0.671" fill="#2e261d" d="M 119.5,317.5 C 121.527,317.338 123.527,317.505 125.5,318C 126.056,318.383 126.389,318.883 126.5,319.5C 126.665,322.518 126.498,325.518 126,328.5C 124.921,325.937 124.421,323.271 124.5,320.5C 123.167,320.5 121.833,320.5 120.5,320.5C 120.664,323.187 120.497,325.854 120,328.5C 119.501,324.848 119.335,321.182 119.5,317.5 Z"/></g>
<g><path style="opacity:0.91" fill="#433a2f" d="M 208.5,327.5 C 208.715,329.179 208.048,330.179 206.5,330.5C 203.837,328.033 201.337,328.366 199,331.5C 198.752,327.064 199.419,322.73 201,318.5C 202.667,317.167 204.333,317.167 206,318.5C 207.302,321.375 208.135,324.375 208.5,327.5 Z"/></g>
<g><path style="opacity:0.857" fill="#504842" d="M 307.5,317.5 C 307.5,321.833 307.5,326.167 307.5,330.5C 306.614,331.776 305.614,331.776 304.5,330.5C 303.167,326.5 303.167,322.5 304.5,318.5C 305.325,317.614 306.325,317.281 307.5,317.5 Z"/></g>
<g><path style="opacity:0.724" fill="#423828" d="M 273.5,328.5 C 271.743,329.518 270.077,329.184 268.5,327.5C 266.945,327.722 265.611,328.389 264.5,329.5C 263.614,328.675 263.281,327.675 263.5,326.5C 263.222,322.44 264.722,319.44 268,317.5C 269.107,317.585 270.107,317.919 271,318.5C 272.15,321.768 272.984,325.101 273.5,328.5 Z"/></g>
<g><path style="opacity:0.629" fill="#423729" d="M 165.5,320.5 C 165.726,323.882 166.726,326.882 168.5,329.5C 167.5,329.5 166.5,329.5 165.5,329.5C 165.167,328.833 164.833,328.167 164.5,327.5C 164.013,326.527 163.513,325.527 163,324.5C 162.798,326.256 162.298,327.922 161.5,329.5C 159.906,326.015 159.24,322.348 159.5,318.5C 162.126,316.994 164.126,317.661 165.5,320.5 Z"/></g>
<g><path style="opacity:0.453" fill="#40382f" d="M 220.5,317.5 C 228.718,316.385 231.384,319.718 228.5,327.5C 227.646,329.934 226.646,329.767 225.5,327C 224.552,326.517 223.552,326.351 222.5,326.5C 222.719,327.675 222.386,328.675 221.5,329.5C 220.509,325.555 220.176,321.555 220.5,317.5 Z"/></g>
<g><path style="opacity:0.894" fill="#5a4c42" d="M 249.5,316.5 C 251.302,317.315 252.302,318.815 252.5,321C 251.455,322.953 251.455,324.953 252.5,327C 251.956,331.652 250.789,332.152 249,328.5C 247.654,331.249 246.32,331.583 245,329.5C 243.759,331.421 242.259,331.754 240.5,330.5C 240.183,326.261 240.183,321.927 240.5,317.5C 241.978,317.238 243.311,317.571 244.5,318.5C 245.083,320.002 245.916,321.335 247,322.5C 248.122,320.593 248.955,318.593 249.5,316.5 Z"/></g>
<g><path style="opacity:0.871" fill="#4e4436" d="M 319.5,317.5 C 322.48,317.241 324.313,318.574 325,321.5C 325.112,318.553 326.612,317.22 329.5,317.5C 330.446,322.134 330.446,326.801 329.5,331.5C 326.405,331.374 324.572,329.707 324,326.5C 324.266,329.901 322.766,331.567 319.5,331.5C 319.106,326.938 319.106,322.271 319.5,317.5 Z"/></g>
<g><path style="opacity:1" fill="#533e28" d="M 101.5,252.5 C 98.0303,267.652 95.5303,282.985 94,298.5C 89.1038,318.393 76.4371,329.393 56,331.5C 52.7272,331.146 49.5606,330.479 46.5,329.5C 45.8166,327.824 44.4832,327.157 42.5,327.5C 42.3505,326.448 42.5172,325.448 43,324.5C 46,320.167 49,315.833 52,311.5C 53.4318,309.069 54.9318,309.069 56.5,311.5C 58.258,311.877 59.9246,312.544 61.5,313.5C 62.5624,312.575 62.5624,311.575 61.5,310.5C 59.6729,309.068 58.0063,307.401 56.5,305.5C 58.11,303.275 59.4434,300.941 60.5,298.5C 60.7376,296.596 61.7376,295.262 63.5,294.5C 66.4648,291.354 69.7981,288.687 73.5,286.5C 73.5,286.167 73.5,285.833 73.5,285.5C 74.1667,285.5 74.5,285.167 74.5,284.5C 75.0654,282.048 75.7321,279.715 76.5,277.5C 76.3433,276.127 76.51,274.793 77,273.5C 79.0308,270.645 81.1975,267.978 83.5,265.5C 85.9,263.704 87.5667,261.37 88.5,258.5C 89.5,258.5 90.5,258.5 91.5,258.5C 91.8785,254.092 94.0451,250.759 98,248.5C 100.071,249.103 101.238,250.436 101.5,252.5 Z"/></g>
<g><path style="opacity:1" fill="#5a4026" d="M 76.5,277.5 C 79.929,272.236 84.2624,267.736 89.5,264C 90.7589,263.018 92.0922,262.685 93.5,263C 92.6673,269.895 91.3339,276.895 89.5,284C 89.9574,284.414 90.2907,284.914 90.5,285.5C 89.7315,289.445 89.2315,293.445 89,297.5C 87.2565,300.957 86.2565,304.623 86,308.5C 83.1595,310.511 81.3261,313.178 80.5,316.5C 78.9397,316.519 77.4397,316.852 76,317.5C 74.1884,319.312 72.3551,321.145 70.5,323C 69.5509,323.617 68.7175,323.451 68,322.5C 66.486,324.766 64.3193,325.932 61.5,326C 58.869,326.107 56.369,326.273 54,326.5C 51.9479,325.277 49.7812,324.277 47.5,323.5C 49.4576,317.418 53.4576,315.751 59.5,318.5C 62.814,318.204 65.1474,316.538 66.5,313.5C 65.2424,310.4 63.7424,307.4 62,304.5C 61.3333,303.167 61.3333,301.833 62,300.5C 63.6667,297.833 65.3333,295.167 67,292.5C 74.7049,290.431 77.8716,285.431 76.5,277.5 Z"/></g>
<g><path style="opacity:0.375" fill="#615a4d" d="M 165.5,329.5 C 166.5,329.5 167.5,329.5 168.5,329.5C 166.726,326.882 165.726,323.882 165.5,320.5C 165.5,319.5 165.5,318.5 165.5,317.5C 167.167,317.5 168.833,317.5 170.5,317.5C 170.666,321.846 170.499,326.179 170,330.5C 168.085,331.916 166.585,331.582 165.5,329.5 Z"/></g>
<g><path style="opacity:0.212" fill="#544e47" d="M 291.5,318.5 C 292.693,318.97 293.36,319.97 293.5,321.5C 295.849,328.303 293.516,331.47 286.5,331C 285.584,330.626 284.75,330.126 284,329.5C 283.175,325.789 283.341,322.122 284.5,318.5C 286.972,317.234 289.306,317.234 291.5,318.5 Z"/></g>
<g><path style="opacity:0.847" fill="#28231c" d="M 291.5,318.5 C 291.719,319.675 291.386,320.675 290.5,321.5C 289.109,320.355 287.776,320.355 286.5,321.5C 288.108,322.318 289.775,322.985 291.5,323.5C 293.36,328.926 291.36,330.926 285.5,329.5C 285.5,328.5 285.5,327.5 285.5,326.5C 292.03,327.418 292.03,326.751 285.5,324.5C 284.286,319.711 286.286,317.711 291.5,318.5 Z"/></g>
<g><path style="opacity:0.796" fill="#4b3e35" d="M 141.5,317.5 C 144.238,316.965 146.072,317.965 147,320.5C 147.911,323.311 148.744,326.144 149.5,329C 149.387,330.28 148.72,331.113 147.5,331.5C 146.167,330.5 144.833,329.5 143.5,328.5C 142.167,329.5 140.833,330.5 139.5,331.5C 138.5,331.167 137.833,330.5 137.5,329.5C 138.532,325.363 139.865,321.363 141.5,317.5 Z"/></g>
<g><path style="opacity:0.424" fill="#ada396" d="M 159.5,318.5 C 159.24,322.348 159.906,326.015 161.5,329.5C 162.298,327.922 162.798,326.256 163,324.5C 163.513,325.527 164.013,326.527 164.5,327.5C 163.751,328.531 163.085,329.698 162.5,331C 161.216,331.684 160.049,331.517 159,330.5C 158.188,326.311 158.355,322.311 159.5,318.5 Z"/></g>
<g><path style="opacity:0.051" fill="#9a9593" d="M 307.5,317.5 C 308.391,318.261 309.058,319.261 309.5,320.5C 308.903,323.971 308.236,327.305 307.5,330.5C 307.5,326.167 307.5,321.833 307.5,317.5 Z"/></g>
<g><path style="opacity:1" fill="#53422e" d="M 32.5,321.5 C 34.513,323.497 36.8463,325.164 39.5,326.5C 40.3857,327.325 40.719,328.325 40.5,329.5C 39.969,332.237 39.1356,334.904 38,337.5C 37.2753,338.059 36.4419,338.392 35.5,338.5C 31.7266,336.57 28.0599,334.403 24.5,332C 22.9926,331.163 22.4926,329.996 23,328.5C 25.5014,325.152 28.6681,322.818 32.5,321.5 Z"/></g>
<g><path style="opacity:0.063" fill="#6e665a" d="M 183.5,317.5 C 185.167,317.5 186.833,317.5 188.5,317.5C 188.666,321.514 188.499,325.514 188,329.5C 186.192,331.396 184.025,331.896 181.5,331C 179.963,329.89 179.297,328.39 179.5,326.5C 180.833,326.5 182.167,326.5 183.5,326.5C 183.5,323.5 183.5,320.5 183.5,317.5 Z"/></g>
<g><path style="opacity:0.102" fill="#7f7871" d="M 220.5,317.5 C 220.176,321.555 220.509,325.555 221.5,329.5C 222.386,328.675 222.719,327.675 222.5,326.5C 223.552,326.351 224.552,326.517 225.5,327C 226.646,329.767 227.646,329.934 228.5,327.5C 229.434,328.568 229.768,329.901 229.5,331.5C 226.708,331.548 224.875,330.215 224,327.5C 223.89,330.646 222.557,331.646 220,330.5C 217.948,325.98 218.114,321.646 220.5,317.5 Z"/></g>
<g><path style="opacity:0.122" fill="#898173" d="M 263.5,326.5 C 263.281,327.675 263.614,328.675 264.5,329.5C 265.611,328.389 266.945,327.722 268.5,327.5C 270.077,329.184 271.743,329.518 273.5,328.5C 273.5,329.5 273.5,330.5 273.5,331.5C 271.088,331.756 269.421,330.756 268.5,328.5C 266.929,330.415 264.929,331.415 262.5,331.5C 262.216,329.585 262.549,327.919 263.5,326.5 Z"/></g>
<g><path style="opacity:0.769" fill="#60544b" d="M 119.5,317.5 C 119.335,321.182 119.501,324.848 120,328.5C 120.497,325.854 120.664,323.187 120.5,320.5C 121.833,320.5 123.167,320.5 124.5,320.5C 124.421,323.271 124.921,325.937 126,328.5C 126.498,325.518 126.665,322.518 126.5,319.5C 130.243,327.533 127.576,331.533 118.5,331.5C 118.181,326.637 118.514,321.97 119.5,317.5 Z"/></g>
<g><path style="opacity:0.086" fill="#bdbaaf" d="M 208.5,327.5 C 209.434,328.568 209.768,329.901 209.5,331.5C 208.209,331.737 207.209,331.404 206.5,330.5C 208.048,330.179 208.715,329.179 208.5,327.5 Z"/></g>
<g><path style="opacity:0.004" fill="#fefffe" d="M 310.5,328.5 C 311.833,329.167 311.833,329.167 310.5,328.5 Z"/></g>
</svg>
